<svg width="32" height="32" viewBox="0 0 32 32" fill="none" xmlns="http://www.w3.org/2000/svg">
<path d="M27.6668 12.5006L20.6668 19.5006M20.6668 12.5006L27.6668 19.5006M13.2402 8.26053L9.5469 11.9538C9.34512 12.1556 9.24423 12.2565 9.1265 12.3286C9.02211 12.3926 8.90831 12.4398 8.78927 12.4683C8.655 12.5006 8.51232 12.5006 8.22696 12.5006H6.20016C5.54677 12.5006 5.22007 12.5006 4.97051 12.6277C4.75098 12.7396 4.57251 12.9181 4.46066 13.1376C4.3335 13.3871 4.3335 13.7138 4.3335 14.3672V17.6339C4.3335 18.2873 4.3335 18.614 4.46066 18.8636C4.57251 19.0831 4.75098 19.2616 4.97051 19.3734C5.22007 19.5006 5.54677 19.5006 6.20016 19.5006H8.22696C8.51232 19.5006 8.655 19.5006 8.78927 19.5328C8.90831 19.5614 9.02211 19.6085 9.1265 19.6725C9.24423 19.7446 9.34512 19.8455 9.5469 20.0473L13.2402 23.7406C13.74 24.2404 13.9899 24.4903 14.2044 24.5071C14.3905 24.5218 14.5725 24.4464 14.6937 24.3045C14.8335 24.1408 14.8335 23.7874 14.8335 23.0806V8.9205C14.8335 8.21371 14.8335 7.86032 14.6937 7.69668C14.5725 7.55469 14.3905 7.47934 14.2044 7.49399C13.9899 7.51087 13.74 7.76076 13.2402 8.26053Z" stroke="white" stroke-width="1.66667" stroke-linecap="round" stroke-linejoin="round"/>
</svg>
