<svg width="84" height="74" viewBox="0 0 84 74" fill="none" xmlns="http://www.w3.org/2000/svg">
<path d="M84 38.8C84 51.1212 84 57.2817 81.6021 61.9878C79.4929 66.1274 76.1274 69.4929 71.9878 71.6021C67.2817 74 61.1212 74 48.8 74L7.62939e-06 74L1.16011e-06 7.34351e-06L48.8 3.07728e-06C61.1211 2.00013e-06 67.2817 1.46156e-06 71.9878 2.39786C76.1274 4.50707 79.4929 7.87264 81.6021 12.0122C84 16.7183 84 22.8788 84 35.2L84 38.8Z" fill="#F04438"/>
<path d="M21.48 58V47.92H24.693C24.777 47.92 24.9427 47.9223 25.19 47.927C25.442 47.9317 25.6847 47.948 25.918 47.976C26.716 48.0787 27.3903 48.3633 27.941 48.83C28.4963 49.292 28.9163 49.8823 29.201 50.601C29.4857 51.3197 29.628 52.106 29.628 52.96C29.628 53.814 29.4857 54.6003 29.201 55.319C28.9163 56.0377 28.4963 56.6303 27.941 57.097C27.3903 57.559 26.716 57.8413 25.918 57.944C25.6893 57.972 25.449 57.9883 25.197 57.993C24.945 57.9977 24.777 58 24.693 58H21.48ZM23.195 56.411H24.693C24.833 56.411 25.0103 56.4063 25.225 56.397C25.4443 56.3877 25.638 56.3667 25.806 56.334C26.282 56.2453 26.6693 56.033 26.968 55.697C27.2667 55.361 27.486 54.9527 27.626 54.472C27.7707 53.9913 27.843 53.4873 27.843 52.96C27.843 52.414 27.7707 51.9007 27.626 51.42C27.4813 50.9393 27.2573 50.5357 26.954 50.209C26.6553 49.8823 26.2727 49.6747 25.806 49.586C25.638 49.5487 25.4443 49.5277 25.225 49.523C25.0103 49.5137 24.833 49.509 24.693 49.509H23.195V56.411ZM34.2997 58.21C33.5344 58.21 32.8624 58.0443 32.2837 57.713C31.7051 57.3817 31.2524 56.922 30.9257 56.334C30.6037 55.746 30.4427 55.0693 30.4427 54.304C30.4427 53.478 30.6014 52.7617 30.9187 52.155C31.2361 51.5437 31.6771 51.07 32.2417 50.734C32.8064 50.398 33.4597 50.23 34.2017 50.23C34.9857 50.23 35.6507 50.4143 36.1967 50.783C36.7474 51.147 37.1557 51.6627 37.4217 52.33C37.6877 52.9973 37.7881 53.7837 37.7227 54.689H36.0497V54.073C36.0451 53.2517 35.9004 52.652 35.6157 52.274C35.3311 51.896 34.8831 51.707 34.2717 51.707C33.5811 51.707 33.0677 51.9217 32.7317 52.351C32.3957 52.7757 32.2277 53.3987 32.2277 54.22C32.2277 54.9853 32.3957 55.578 32.7317 55.998C33.0677 56.418 33.5577 56.628 34.2017 56.628C34.6171 56.628 34.9741 56.537 35.2727 56.355C35.5761 56.1683 35.8094 55.9 35.9727 55.55L37.6387 56.054C37.3494 56.7353 36.9014 57.265 36.2947 57.643C35.6927 58.021 35.0277 58.21 34.2997 58.21ZM31.6957 54.689V53.415H36.8967V54.689H31.6957ZM39.0046 58V47.71H40.6916V58H39.0046ZM45.8054 58.21C45.0401 58.21 44.3681 58.0443 43.7894 57.713C43.2108 57.3817 42.7581 56.922 42.4314 56.334C42.1094 55.746 41.9484 55.0693 41.9484 54.304C41.9484 53.478 42.1071 52.7617 42.4244 52.155C42.7418 51.5437 43.1828 51.07 43.7474 50.734C44.3121 50.398 44.9654 50.23 45.7074 50.23C46.4914 50.23 47.1564 50.4143 47.7024 50.783C48.2531 51.147 48.6614 51.6627 48.9274 52.33C49.1934 52.9973 49.2938 53.7837 49.2284 54.689H47.5554V54.073C47.5508 53.2517 47.4061 52.652 47.1214 52.274C46.8368 51.896 46.3888 51.707 45.7774 51.707C45.0868 51.707 44.5734 51.9217 44.2374 52.351C43.9014 52.7757 43.7334 53.3987 43.7334 54.22C43.7334 54.9853 43.9014 55.578 44.2374 55.998C44.5734 56.418 45.0634 56.628 45.7074 56.628C46.1228 56.628 46.4798 56.537 46.7784 56.355C47.0818 56.1683 47.3151 55.9 47.4784 55.55L49.1444 56.054C48.8551 56.7353 48.4071 57.265 47.8004 57.643C47.1984 58.021 46.5334 58.21 45.8054 58.21ZM43.2014 54.689V53.415H48.4024V54.689H43.2014ZM54.8013 58C54.302 58.0933 53.812 58.133 53.3313 58.119C52.8553 58.1097 52.4283 58.0233 52.0503 57.86C51.6723 57.692 51.3853 57.4283 51.1893 57.069C51.0166 56.7423 50.9256 56.4087 50.9163 56.068C50.907 55.7273 50.9023 55.3423 50.9023 54.913V48.34H52.5823V54.815C52.5823 55.1183 52.5846 55.3843 52.5893 55.613C52.5986 55.8417 52.6476 56.0283 52.7363 56.173C52.9043 56.453 53.1726 56.6093 53.5413 56.642C53.91 56.6747 54.33 56.656 54.8013 56.586V58ZM49.5303 51.763V50.44H54.8013V51.763H49.5303ZM59.0611 58.21C58.2958 58.21 57.6238 58.0443 57.0451 57.713C56.4665 57.3817 56.0138 56.922 55.6871 56.334C55.3651 55.746 55.2041 55.0693 55.2041 54.304C55.2041 53.478 55.3628 52.7617 55.6801 52.155C55.9975 51.5437 56.4385 51.07 57.0031 50.734C57.5678 50.398 58.2211 50.23 58.9631 50.23C59.7471 50.23 60.4121 50.4143 60.9581 50.783C61.5088 51.147 61.9171 51.6627 62.1831 52.33C62.4491 52.9973 62.5495 53.7837 62.4841 54.689H60.8111V54.073C60.8065 53.2517 60.6618 52.652 60.3771 52.274C60.0925 51.896 59.6445 51.707 59.0331 51.707C58.3425 51.707 57.8291 51.9217 57.4931 52.351C57.1571 52.7757 56.9891 53.3987 56.9891 54.22C56.9891 54.9853 57.1571 55.578 57.4931 55.998C57.8291 56.418 58.3191 56.628 58.9631 56.628C59.3785 56.628 59.7355 56.537 60.0341 56.355C60.3375 56.1683 60.5708 55.9 60.7341 55.55L62.4001 56.054C62.1108 56.7353 61.6628 57.265 61.0561 57.643C60.4541 58.021 59.7891 58.21 59.0611 58.21ZM56.4571 54.689V53.415H61.6581V54.689H56.4571Z" fill="white"/>
<path d="M38.5 16.5H45.5M31.5 20H52.5M50.1667 20L49.3485 32.2725C49.2257 34.1138 49.1644 35.0344 48.7667 35.7325C48.4166 36.3471 47.8884 36.8412 47.2519 37.1496C46.529 37.5 45.6063 37.5 43.7609 37.5H40.2391C38.3937 37.5 37.471 37.5 36.7481 37.1496C36.1115 36.8412 35.5834 36.3471 35.2333 35.7325C34.8356 35.0344 34.7743 34.1138 34.6515 32.2725L33.8333 20M39.6667 25.25V31.0833M44.3333 25.25V31.0833" stroke="white" stroke-width="1.66667" stroke-linecap="round" stroke-linejoin="round"/>
</svg>
