<svg width="20" height="14" viewBox="0 0 20 14" fill="none" xmlns="http://www.w3.org/2000/svg">
<path d="M18.3332 4.49929L13.3332 9.49929M13.3332 4.49929L18.3332 9.49929M8.02843 1.47069L5.39036 4.10876C5.24624 4.25289 5.17417 4.32495 5.09007 4.37649C5.01551 4.42218 4.93423 4.45585 4.8492 4.47626C4.75329 4.49929 4.65138 4.49929 4.44755 4.49929H2.99984C2.53313 4.49929 2.29977 4.49929 2.12151 4.59012C1.96471 4.67001 1.83723 4.79749 1.75733 4.9543C1.6665 5.13256 1.6665 5.36591 1.6665 5.83262V8.16596C1.6665 8.63267 1.6665 8.86602 1.75733 9.04428C1.83723 9.20108 1.96471 9.32857 2.12151 9.40846C2.29977 9.49929 2.53313 9.49929 2.99984 9.49929H4.44755C4.65138 9.49929 4.75329 9.49929 4.8492 9.52231C4.93423 9.54273 5.01551 9.5764 5.09007 9.62209C5.17417 9.67362 5.24624 9.74569 5.39036 9.88981L8.02843 12.5279C8.38541 12.8849 8.5639 13.0634 8.71715 13.0754C8.85011 13.0859 8.98005 13.0321 9.06667 12.9306C9.1665 12.8137 9.1665 12.5613 9.1665 12.0565V1.9421C9.1665 1.43725 9.1665 1.18483 9.06667 1.06794C8.98005 0.96652 8.85011 0.912697 8.71715 0.923162C8.5639 0.935222 8.38541 1.11371 8.02843 1.47069Z" stroke="white" stroke-width="1.66667" stroke-linecap="round" stroke-linejoin="round"/>
</svg>
