<svg width="182" height="74" viewBox="0 0 182 74" fill="none" xmlns="http://www.w3.org/2000/svg">
<g filter="url(#filter0_d_2697_14100)">
<path d="M28.5147 39.0711C28.5147 39.962 27.4376 40.4081 26.8076 39.7782L20.7365 33.7071C20.346 33.3166 20.346 32.6834 20.7365 32.2929L26.8076 26.2218C27.4376 25.5919 28.5147 26.038 28.5147 26.9289L28.5147 39.0711Z" fill="#101828"/>
<rect x="26" y="16" width="136" height="34" rx="8" fill="#101828"/>
<path d="M38.5096 38L41.3176 29.36H43.1236L45.9316 38H44.6296L42.0436 30.116H42.3676L39.8116 38H38.5096ZM39.9676 36.05V34.874H44.4796V36.05H39.9676ZM49.222 38.18C48.618 38.18 48.096 38.03 47.656 37.73C47.22 37.43 46.882 37.022 46.642 36.506C46.406 35.986 46.288 35.402 46.288 34.754C46.288 34.102 46.408 33.52 46.648 33.008C46.888 32.492 47.228 32.086 47.668 31.79C48.112 31.49 48.638 31.34 49.246 31.34C49.858 31.34 50.372 31.49 50.788 31.79C51.208 32.086 51.524 32.492 51.736 33.008C51.952 33.524 52.06 34.106 52.06 34.754C52.06 35.402 51.952 35.984 51.736 36.5C51.52 37.016 51.202 37.426 50.782 37.73C50.362 38.03 49.842 38.18 49.222 38.18ZM49.396 37.046C49.808 37.046 50.144 36.948 50.404 36.752C50.664 36.556 50.854 36.286 50.974 35.942C51.094 35.598 51.154 35.202 51.154 34.754C51.154 34.306 51.092 33.91 50.968 33.566C50.848 33.222 50.66 32.954 50.404 32.762C50.152 32.57 49.83 32.474 49.438 32.474C49.022 32.474 48.68 32.576 48.412 32.78C48.144 32.984 47.944 33.258 47.812 33.602C47.684 33.946 47.62 34.33 47.62 34.754C47.62 35.182 47.684 35.57 47.812 35.918C47.944 36.262 48.14 36.536 48.4 36.74C48.664 36.944 48.996 37.046 49.396 37.046ZM51.154 38V33.338H51.01V29.36H52.27V38H51.154ZM56.1628 38.18C55.5588 38.18 55.0368 38.03 54.5968 37.73C54.1608 37.43 53.8228 37.022 53.5828 36.506C53.3468 35.986 53.2288 35.402 53.2288 34.754C53.2288 34.102 53.3488 33.52 53.5888 33.008C53.8288 32.492 54.1688 32.086 54.6088 31.79C55.0528 31.49 55.5788 31.34 56.1868 31.34C56.7988 31.34 57.3128 31.49 57.7288 31.79C58.1488 32.086 58.4648 32.492 58.6768 33.008C58.8928 33.524 59.0008 34.106 59.0008 34.754C59.0008 35.402 58.8928 35.984 58.6768 36.5C58.4608 37.016 58.1428 37.426 57.7228 37.73C57.3028 38.03 56.7828 38.18 56.1628 38.18ZM56.3368 37.046C56.7488 37.046 57.0848 36.948 57.3448 36.752C57.6048 36.556 57.7948 36.286 57.9148 35.942C58.0348 35.598 58.0948 35.202 58.0948 34.754C58.0948 34.306 58.0328 33.91 57.9088 33.566C57.7888 33.222 57.6008 32.954 57.3448 32.762C57.0928 32.57 56.7708 32.474 56.3788 32.474C55.9628 32.474 55.6208 32.576 55.3528 32.78C55.0848 32.984 54.8848 33.258 54.7528 33.602C54.6248 33.946 54.5608 34.33 54.5608 34.754C54.5608 35.182 54.6248 35.57 54.7528 35.918C54.8848 36.262 55.0808 36.536 55.3408 36.74C55.6048 36.944 55.9368 37.046 56.3368 37.046ZM58.0948 38V33.338H57.9508V29.36H59.2108V38H58.0948ZM63.448 40.88L64.702 37.466L64.72 38.474L61.894 31.52H63.202L65.314 36.89H64.93L66.946 31.52H68.218L64.642 40.88H63.448ZM71.3775 38.18C70.7295 38.18 70.1675 38.034 69.6915 37.742C69.2155 37.45 68.8475 37.048 68.5875 36.536C68.3315 36.02 68.2035 35.426 68.2035 34.754C68.2035 34.078 68.3355 33.484 68.5995 32.972C68.8635 32.456 69.2335 32.056 69.7095 31.772C70.1855 31.484 70.7415 31.34 71.3775 31.34C72.0255 31.34 72.5875 31.486 73.0635 31.778C73.5395 32.07 73.9075 32.472 74.1675 32.984C74.4275 33.496 74.5575 34.086 74.5575 34.754C74.5575 35.43 74.4255 36.026 74.1615 36.542C73.9015 37.054 73.5335 37.456 73.0575 37.748C72.5815 38.036 72.0215 38.18 71.3775 38.18ZM71.3775 36.998C71.9975 36.998 72.4595 36.79 72.7635 36.374C73.0715 35.954 73.2255 35.414 73.2255 34.754C73.2255 34.078 73.0695 33.538 72.7575 33.134C72.4495 32.726 71.9895 32.522 71.3775 32.522C70.9575 32.522 70.6115 32.618 70.3395 32.81C70.0675 32.998 69.8655 33.26 69.7335 33.596C69.6015 33.928 69.5355 34.314 69.5355 34.754C69.5355 35.434 69.6915 35.978 70.0035 36.386C70.3155 36.794 70.7735 36.998 71.3775 36.998ZM77.958 38.174C77.51 38.174 77.134 38.102 76.83 37.958C76.526 37.814 76.278 37.626 76.086 37.394C75.898 37.158 75.754 36.902 75.654 36.626C75.554 36.35 75.486 36.08 75.45 35.816C75.414 35.552 75.396 35.32 75.396 35.12V31.52H76.668V34.706C76.668 34.958 76.688 35.218 76.728 35.486C76.772 35.75 76.852 35.996 76.968 36.224C77.088 36.452 77.254 36.636 77.466 36.776C77.682 36.916 77.962 36.986 78.306 36.986C78.53 36.986 78.742 36.95 78.942 36.878C79.142 36.802 79.316 36.682 79.464 36.518C79.616 36.354 79.734 36.138 79.818 35.87C79.906 35.602 79.95 35.276 79.95 34.892L80.73 35.186C80.73 35.774 80.62 36.294 80.4 36.746C80.18 37.194 79.864 37.544 79.452 37.796C79.04 38.048 78.542 38.174 77.958 38.174ZM80.1 38V36.128H79.95V31.52H81.216V38H80.1ZM82.5388 38V31.52H83.6548V33.092L83.4988 32.888C83.5788 32.68 83.6828 32.49 83.8108 32.318C83.9388 32.142 84.0868 31.998 84.2548 31.886C84.4188 31.766 84.6008 31.674 84.8008 31.61C85.0048 31.542 85.2128 31.502 85.4248 31.49C85.6368 31.474 85.8408 31.484 86.0368 31.52V32.696C85.8248 32.64 85.5888 32.624 85.3288 32.648C85.0728 32.672 84.8368 32.754 84.6208 32.894C84.4168 33.026 84.2548 33.186 84.1348 33.374C84.0188 33.562 83.9348 33.772 83.8828 34.004C83.8308 34.232 83.8048 34.474 83.8048 34.73V38H82.5388ZM89.4558 38V31.292C89.4558 31.128 89.4618 30.954 89.4738 30.77C89.4858 30.582 89.5198 30.398 89.5758 30.218C89.6358 30.034 89.7338 29.866 89.8698 29.714C90.0338 29.534 90.2138 29.406 90.4098 29.33C90.6058 29.254 90.7998 29.21 90.9918 29.198C91.1878 29.186 91.3678 29.18 91.5318 29.18H92.3478V30.212H91.5918C91.2958 30.212 91.0738 30.286 90.9258 30.434C90.7818 30.578 90.7098 30.784 90.7098 31.052V38H89.4558ZM88.3818 32.528V31.52H92.3478V32.528H88.3818ZM93.6078 30.458V29.24H94.8618V30.458H93.6078ZM93.6078 38V31.52H94.8618V38H93.6078ZM96.3065 38V31.52H97.4225V33.092L97.2665 32.888C97.3465 32.68 97.4505 32.49 97.5785 32.318C97.7065 32.142 97.8545 31.998 98.0225 31.886C98.1865 31.766 98.3685 31.674 98.5685 31.61C98.7725 31.542 98.9805 31.502 99.1925 31.49C99.4045 31.474 99.6085 31.484 99.8045 31.52V32.696C99.5925 32.64 99.3565 32.624 99.0965 32.648C98.8405 32.672 98.6045 32.754 98.3885 32.894C98.1845 33.026 98.0225 33.186 97.9025 33.374C97.7865 33.562 97.7025 33.772 97.6505 34.004C97.5985 34.232 97.5725 34.474 97.5725 34.73V38H96.3065ZM102.831 38.174C102.043 38.174 101.401 38 100.905 37.652C100.409 37.304 100.105 36.814 99.9927 36.182L101.277 35.984C101.357 36.32 101.541 36.586 101.829 36.782C102.121 36.974 102.483 37.07 102.915 37.07C103.307 37.07 103.613 36.99 103.833 36.83C104.057 36.67 104.169 36.45 104.169 36.17C104.169 36.006 104.129 35.874 104.049 35.774C103.973 35.67 103.811 35.572 103.563 35.48C103.315 35.388 102.937 35.274 102.429 35.138C101.873 34.994 101.431 34.84 101.103 34.676C100.779 34.508 100.547 34.314 100.407 34.094C100.271 33.87 100.203 33.6 100.203 33.284C100.203 32.892 100.307 32.55 100.515 32.258C100.723 31.966 101.015 31.74 101.391 31.58C101.771 31.42 102.215 31.34 102.723 31.34C103.219 31.34 103.661 31.418 104.049 31.574C104.437 31.73 104.751 31.952 104.991 32.24C105.231 32.524 105.375 32.858 105.423 33.242L104.139 33.476C104.095 33.164 103.949 32.918 103.701 32.738C103.453 32.558 103.131 32.46 102.735 32.444C102.355 32.428 102.047 32.492 101.811 32.636C101.575 32.776 101.457 32.97 101.457 33.218C101.457 33.362 101.501 33.484 101.589 33.584C101.681 33.684 101.857 33.78 102.117 33.872C102.377 33.964 102.761 34.074 103.269 34.202C103.813 34.342 104.245 34.498 104.565 34.67C104.885 34.838 105.113 35.04 105.249 35.276C105.389 35.508 105.459 35.79 105.459 36.122C105.459 36.762 105.225 37.264 104.757 37.628C104.293 37.992 103.651 38.174 102.831 38.174ZM110.134 38C109.726 38.08 109.326 38.114 108.934 38.102C108.542 38.09 108.192 38.014 107.884 37.874C107.576 37.734 107.344 37.514 107.188 37.214C107.048 36.946 106.972 36.674 106.96 36.398C106.952 36.118 106.948 35.802 106.948 35.45V29.72H108.208V35.39C108.208 35.65 108.21 35.876 108.214 36.068C108.222 36.26 108.264 36.422 108.34 36.554C108.484 36.802 108.712 36.944 109.024 36.98C109.34 37.012 109.71 36.998 110.134 36.938V38ZM105.706 32.528V31.52H110.134V32.528H105.706ZM115.661 38.174C114.873 38.174 114.231 38 113.735 37.652C113.239 37.304 112.935 36.814 112.823 36.182L114.107 35.984C114.187 36.32 114.371 36.586 114.659 36.782C114.951 36.974 115.313 37.07 115.745 37.07C116.137 37.07 116.443 36.99 116.663 36.83C116.887 36.67 116.999 36.45 116.999 36.17C116.999 36.006 116.959 35.874 116.879 35.774C116.803 35.67 116.641 35.572 116.393 35.48C116.145 35.388 115.767 35.274 115.259 35.138C114.703 34.994 114.261 34.84 113.933 34.676C113.609 34.508 113.377 34.314 113.237 34.094C113.101 33.87 113.033 33.6 113.033 33.284C113.033 32.892 113.137 32.55 113.345 32.258C113.553 31.966 113.845 31.74 114.221 31.58C114.601 31.42 115.045 31.34 115.553 31.34C116.049 31.34 116.491 31.418 116.879 31.574C117.267 31.73 117.581 31.952 117.821 32.24C118.061 32.524 118.205 32.858 118.253 33.242L116.969 33.476C116.925 33.164 116.779 32.918 116.531 32.738C116.283 32.558 115.961 32.46 115.565 32.444C115.185 32.428 114.877 32.492 114.641 32.636C114.405 32.776 114.287 32.97 114.287 33.218C114.287 33.362 114.331 33.484 114.419 33.584C114.511 33.684 114.687 33.78 114.947 33.872C115.207 33.964 115.591 34.074 116.099 34.202C116.643 34.342 117.075 34.498 117.395 34.67C117.715 34.838 117.943 35.04 118.079 35.276C118.219 35.508 118.289 35.79 118.289 36.122C118.289 36.762 118.055 37.264 117.587 37.628C117.123 37.992 116.481 38.174 115.661 38.174ZM122.13 38.18C121.486 38.18 120.92 38.04 120.432 37.76C119.948 37.476 119.57 37.082 119.298 36.578C119.03 36.07 118.896 35.482 118.896 34.814C118.896 34.106 119.028 33.492 119.292 32.972C119.56 32.452 119.932 32.05 120.408 31.766C120.884 31.482 121.438 31.34 122.07 31.34C122.73 31.34 123.292 31.494 123.756 31.802C124.22 32.106 124.566 32.54 124.794 33.104C125.026 33.668 125.118 34.338 125.07 35.114H123.816V34.658C123.808 33.906 123.664 33.35 123.384 32.99C123.108 32.63 122.686 32.45 122.118 32.45C121.49 32.45 121.018 32.648 120.702 33.044C120.386 33.44 120.228 34.012 120.228 34.76C120.228 35.472 120.386 36.024 120.702 36.416C121.018 36.804 121.474 36.998 122.07 36.998C122.462 36.998 122.8 36.91 123.084 36.734C123.372 36.554 123.596 36.298 123.756 35.966L124.986 36.356C124.734 36.936 124.352 37.386 123.84 37.706C123.328 38.022 122.758 38.18 122.13 38.18ZM119.82 35.114V34.136H124.446V35.114H119.82ZM130.429 38V34.814C130.429 34.562 130.407 34.304 130.363 34.04C130.323 33.772 130.243 33.524 130.123 33.296C130.007 33.068 129.841 32.884 129.625 32.744C129.413 32.604 129.135 32.534 128.791 32.534C128.567 32.534 128.355 32.572 128.155 32.648C127.955 32.72 127.779 32.838 127.627 33.002C127.479 33.166 127.361 33.382 127.273 33.65C127.189 33.918 127.147 34.244 127.147 34.628L126.367 34.334C126.367 33.746 126.477 33.228 126.697 32.78C126.917 32.328 127.233 31.976 127.645 31.724C128.057 31.472 128.555 31.346 129.139 31.346C129.587 31.346 129.963 31.418 130.267 31.562C130.571 31.706 130.817 31.896 131.005 32.132C131.197 32.364 131.343 32.618 131.443 32.894C131.543 33.17 131.611 33.44 131.647 33.704C131.683 33.968 131.701 34.2 131.701 34.4V38H130.429ZM125.875 38V31.52H126.997V33.392H127.147V38H125.875ZM135.382 38.174C134.594 38.174 133.952 38 133.456 37.652C132.96 37.304 132.656 36.814 132.544 36.182L133.828 35.984C133.908 36.32 134.092 36.586 134.38 36.782C134.672 36.974 135.034 37.07 135.466 37.07C135.858 37.07 136.164 36.99 136.384 36.83C136.608 36.67 136.72 36.45 136.72 36.17C136.72 36.006 136.68 35.874 136.6 35.774C136.524 35.67 136.362 35.572 136.114 35.48C135.866 35.388 135.488 35.274 134.98 35.138C134.424 34.994 133.982 34.84 133.654 34.676C133.33 34.508 133.098 34.314 132.958 34.094C132.822 33.87 132.754 33.6 132.754 33.284C132.754 32.892 132.858 32.55 133.066 32.258C133.274 31.966 133.566 31.74 133.942 31.58C134.322 31.42 134.766 31.34 135.274 31.34C135.77 31.34 136.212 31.418 136.6 31.574C136.988 31.73 137.302 31.952 137.542 32.24C137.782 32.524 137.926 32.858 137.974 33.242L136.69 33.476C136.646 33.164 136.5 32.918 136.252 32.738C136.004 32.558 135.682 32.46 135.286 32.444C134.906 32.428 134.598 32.492 134.362 32.636C134.126 32.776 134.008 32.97 134.008 33.218C134.008 33.362 134.052 33.484 134.14 33.584C134.232 33.684 134.408 33.78 134.668 33.872C134.928 33.964 135.312 34.074 135.82 34.202C136.364 34.342 136.796 34.498 137.116 34.67C137.436 34.838 137.664 35.04 137.8 35.276C137.94 35.508 138.01 35.79 138.01 36.122C138.01 36.762 137.776 37.264 137.308 37.628C136.844 37.992 136.202 38.174 135.382 38.174ZM141.791 38.18C141.143 38.18 140.581 38.034 140.105 37.742C139.629 37.45 139.261 37.048 139.001 36.536C138.745 36.02 138.617 35.426 138.617 34.754C138.617 34.078 138.749 33.484 139.013 32.972C139.277 32.456 139.647 32.056 140.123 31.772C140.599 31.484 141.155 31.34 141.791 31.34C142.439 31.34 143.001 31.486 143.477 31.778C143.953 32.07 144.321 32.472 144.581 32.984C144.841 33.496 144.971 34.086 144.971 34.754C144.971 35.43 144.839 36.026 144.575 36.542C144.315 37.054 143.947 37.456 143.471 37.748C142.995 38.036 142.435 38.18 141.791 38.18ZM141.791 36.998C142.411 36.998 142.873 36.79 143.177 36.374C143.485 35.954 143.639 35.414 143.639 34.754C143.639 34.078 143.483 33.538 143.171 33.134C142.863 32.726 142.403 32.522 141.791 32.522C141.371 32.522 141.025 32.618 140.753 32.81C140.481 32.998 140.279 33.26 140.147 33.596C140.015 33.928 139.949 34.314 139.949 34.754C139.949 35.434 140.105 35.978 140.417 36.386C140.729 36.794 141.187 36.998 141.791 36.998ZM145.93 38V31.52H147.046V33.092L146.89 32.888C146.97 32.68 147.074 32.49 147.202 32.318C147.33 32.142 147.478 31.998 147.646 31.886C147.81 31.766 147.992 31.674 148.192 31.61C148.396 31.542 148.604 31.502 148.816 31.49C149.028 31.474 149.232 31.484 149.428 31.52V32.696C149.216 32.64 148.98 32.624 148.72 32.648C148.464 32.672 148.228 32.754 148.012 32.894C147.808 33.026 147.646 33.186 147.526 33.374C147.41 33.562 147.326 33.772 147.274 34.004C147.222 34.232 147.196 34.474 147.196 34.73V38H145.93Z" fill="white"/>
</g>
<defs>
<filter id="filter0_d_2697_14100" x="0" y="0" width="182" height="74" filterUnits="userSpaceOnUse" color-interpolation-filters="sRGB">
<feFlood flood-opacity="0" result="BackgroundImageFix"/>
<feColorMatrix in="SourceAlpha" type="matrix" values="0 0 0 0 0 0 0 0 0 0 0 0 0 0 0 0 0 0 127 0" result="hardAlpha"/>
<feMorphology radius="4" operator="erode" in="SourceAlpha" result="effect1_dropShadow_2697_14100"/>
<feOffset dy="4"/>
<feGaussianBlur stdDeviation="12"/>
<feColorMatrix type="matrix" values="0 0 0 0 0.180392 0 0 0 0 0.211765 0 0 0 0 0.219608 0 0 0 0.08 0"/>
<feBlend mode="normal" in2="BackgroundImageFix" result="effect1_dropShadow_2697_14100"/>
<feBlend mode="normal" in="SourceGraphic" in2="effect1_dropShadow_2697_14100" result="shape"/>
</filter>
</defs>
</svg>
