<svg width="99" height="74" viewBox="0 0 99 74" fill="none" xmlns="http://www.w3.org/2000/svg">
<path fill-rule="evenodd" clip-rule="evenodd" d="M6.10352e-05 74H98.9375V0H0C1.45218 0.33847 2.73523 0.791504 3.92529 1.39786C8.06485 3.50708 11.4304 6.87265 13.5396 11.0122C15.9375 15.7183 15.9375 21.8788 15.9375 34.2V39.8C15.9375 52.1212 15.9375 58.2817 13.5396 62.9878C11.4304 67.1274 8.06485 70.4929 3.92529 72.6022C2.73526 73.2085 1.45221 73.6616 6.10352e-05 74Z" fill="#FFA812"/>
<path d="M41.98 58V47.92H43.499L46.985 55.06L50.471 47.92H51.99V58H50.415V51.539L47.321 58H46.649L43.562 51.539V58H41.98ZM56.3716 58.217C55.8116 58.217 55.3496 58.1237 54.9856 57.937C54.6216 57.7503 54.3322 57.5123 54.1176 57.223C53.9029 56.9337 53.7442 56.6257 53.6416 56.299C53.5389 55.9723 53.4712 55.6643 53.4386 55.375C53.4106 55.081 53.3966 54.843 53.3966 54.661V50.44H55.1046V54.08C55.1046 54.3133 55.1209 54.577 55.1536 54.871C55.1862 55.1603 55.2609 55.4403 55.3776 55.711C55.4989 55.977 55.6762 56.1963 55.9096 56.369C56.1476 56.5417 56.4672 56.628 56.8686 56.628C57.0832 56.628 57.2956 56.593 57.5056 56.523C57.7156 56.453 57.9046 56.334 58.0726 56.166C58.2452 55.9933 58.3829 55.7577 58.4856 55.459C58.5882 55.1603 58.6396 54.7823 58.6396 54.325L59.6406 54.752C59.6406 55.396 59.5146 55.9793 59.2626 56.502C59.0152 57.0247 58.6489 57.4423 58.1636 57.755C57.6782 58.063 57.0809 58.217 56.3716 58.217ZM58.8426 58V55.655H58.6396V50.44H60.3336V58H58.8426ZM66.3112 58C65.8119 58.0933 65.3219 58.133 64.8412 58.119C64.3652 58.1097 63.9382 58.0233 63.5602 57.86C63.1822 57.692 62.8952 57.4283 62.6992 57.069C62.5266 56.7423 62.4356 56.4087 62.4262 56.068C62.4169 55.7273 62.4122 55.3423 62.4122 54.913V48.34H64.0922V54.815C64.0922 55.1183 64.0946 55.3843 64.0992 55.613C64.1086 55.8417 64.1576 56.0283 64.2462 56.173C64.4142 56.453 64.6826 56.6093 65.0512 56.642C65.4199 56.6747 65.8399 56.656 66.3112 56.586V58ZM61.0402 51.763V50.44H66.3112V51.763H61.0402ZM70.5711 58.21C69.8057 58.21 69.1337 58.0443 68.5551 57.713C67.9764 57.3817 67.5237 56.922 67.1971 56.334C66.8751 55.746 66.7141 55.0693 66.7141 54.304C66.7141 53.478 66.8727 52.7617 67.1901 52.155C67.5074 51.5437 67.9484 51.07 68.5131 50.734C69.0777 50.398 69.7311 50.23 70.4731 50.23C71.2571 50.23 71.9221 50.4143 72.4681 50.783C73.0187 51.147 73.4271 51.6627 73.6931 52.33C73.9591 52.9973 74.0594 53.7837 73.9941 54.689H72.3211V54.073C72.3164 53.2517 72.1717 52.652 71.8871 52.274C71.6024 51.896 71.1544 51.707 70.5431 51.707C69.8524 51.707 69.3391 51.9217 69.0031 52.351C68.6671 52.7757 68.4991 53.3987 68.4991 54.22C68.4991 54.9853 68.6671 55.578 69.0031 55.998C69.3391 56.418 69.8291 56.628 70.4731 56.628C70.8884 56.628 71.2454 56.537 71.5441 56.355C71.8474 56.1683 72.0807 55.9 72.2441 55.55L73.9101 56.054C73.6207 56.7353 73.1727 57.265 72.5661 57.643C71.9641 58.021 71.2991 58.21 70.5711 58.21ZM67.9671 54.689V53.415H73.1681V54.689H67.9671Z" fill="white"/>
<path d="M69.6668 23.5006L62.6668 30.5006M62.6668 23.5006L69.6668 30.5006M55.2402 19.2605L51.5469 22.9538C51.3451 23.1556 51.2442 23.2565 51.1265 23.3286C51.0221 23.3926 50.9083 23.4398 50.7893 23.4683C50.655 23.5006 50.5123 23.5006 50.227 23.5006H48.2002C47.5468 23.5006 47.2201 23.5006 46.9705 23.6277C46.751 23.7396 46.5725 23.9181 46.4607 24.1376C46.3335 24.3871 46.3335 24.7138 46.3335 25.3672V28.6339C46.3335 29.2873 46.3335 29.614 46.4607 29.8636C46.5725 30.0831 46.751 30.2616 46.9705 30.3734C47.2201 30.5006 47.5468 30.5006 48.2002 30.5006H50.227C50.5123 30.5006 50.655 30.5006 50.7893 30.5328C50.9083 30.5614 51.0221 30.6085 51.1265 30.6725C51.2442 30.7446 51.3451 30.8455 51.5469 31.0473L55.2402 34.7406C55.74 35.2404 55.9899 35.4903 56.2044 35.5071C56.3905 35.5218 56.5725 35.4464 56.6937 35.3045C56.8335 35.1408 56.8335 34.7874 56.8335 34.0806V19.9205C56.8335 19.2137 56.8335 18.8603 56.6937 18.6967C56.5725 18.5547 56.3905 18.4793 56.2044 18.494C55.9899 18.5109 55.74 18.7608 55.2402 19.2605Z" stroke="white" stroke-width="1.66667" stroke-linecap="round" stroke-linejoin="round"/>
</svg>
