<svg width="24" height="24" viewBox="0 0 24 24" fill="none" xmlns="http://www.w3.org/2000/svg">
<path fill-rule="evenodd" clip-rule="evenodd" d="M1.5541 11.1333C1.76724 11.3411 2.07956 11.3397 2.2927 11.1158C4.84543 8.41583 8.21664 6.98514 11.9984 6.98514C15.7962 6.98514 19.1901 8.41727 21.7216 11.1267C21.9268 11.3317 22.2296 11.3221 22.4413 11.1093L23.8511 9.69926C24.0453 9.50382 24.0416 9.25379 23.8862 9.05979C21.4156 6.02306 16.7758 3.83984 11.9984 3.83984C7.21958 3.83984 2.57319 6.01647 0.109193 9.05979C-0.0462428 9.25379 -0.0367592 9.50382 0.144235 9.69926L1.5541 11.1333ZM5.88552 15.4498C6.11762 15.6722 6.41242 15.6481 6.64164 15.4081C7.91131 14.0205 9.95063 13.0531 11.9989 13.0597C14.0645 13.0531 16.1082 14.0446 17.3991 15.4365C17.6042 15.6655 17.8786 15.6546 18.1107 15.4431L19.6988 13.8819C19.8849 13.7106 19.8973 13.4597 19.7353 13.2658C18.1436 11.3338 15.2017 9.94394 11.9989 9.94394C8.79446 9.94394 5.85916 11.3338 4.26091 13.2658C4.09888 13.4597 4.10322 13.6959 4.29884 13.8819L5.88552 15.4498ZM12.8397 20.6631C12.4343 21.0587 12.2307 21.1652 12.0001 21.1652C11.7694 21.1652 11.5657 21.0521 11.1589 20.6631L8.63909 18.2407C8.47051 18.0788 8.41873 17.8718 8.53622 17.6887C9.22918 16.7637 10.5432 16.0038 12.0001 16.0038C13.4247 16.0038 14.7272 16.7368 15.4172 17.6232C15.5756 17.8281 15.5391 18.0759 15.3661 18.2407L12.8397 20.6631Z" fill="white"/>
</svg>
