<svg width="16" height="16" viewBox="0 0 16 16" fill="none" xmlns="http://www.w3.org/2000/svg">
<g clip-path="url(#clip0_7952_14533)">
<path d="M14.6666 8.00065C14.6666 11.6826 11.6818 14.6673 7.99992 14.6673C4.31802 14.6673 1.33325 11.6826 1.33325 8.00065M14.6666 8.00065C14.6666 4.31875 11.6818 1.33398 7.99992 1.33398M14.6666 8.00065H12.9999M1.33325 8.00065C1.33325 4.31875 4.31802 1.33398 7.99992 1.33398M1.33325 8.00065H2.99992M7.99992 1.33398V3.00065M12.7189 3.33398L8.99986 7.00065M12.7189 12.7196L12.5829 12.5837C12.1217 12.1225 11.8911 11.8919 11.622 11.7269C11.3834 11.5807 11.1233 11.473 10.8512 11.4077C10.5443 11.334 10.2182 11.334 9.56593 11.334L6.43389 11.334C5.78165 11.334 5.45553 11.334 5.14863 11.4077C4.87654 11.473 4.61642 11.5808 4.37783 11.727C4.10872 11.8919 3.87812 12.1225 3.41692 12.5837L3.28101 12.7196M3.28101 3.33398L4.43864 4.49162M9.33325 8.00065C9.33325 8.73703 8.7363 9.33398 7.99992 9.33398C7.26354 9.33398 6.66659 8.73703 6.66659 8.00065C6.66659 7.26427 7.26354 6.66732 7.99992 6.66732C8.7363 6.66732 9.33325 7.26427 9.33325 8.00065Z" stroke="#73888C" stroke-width="1.5" stroke-linecap="round" stroke-linejoin="round"/>
</g>
<defs>
<clipPath id="clip0_7952_14533">
<rect width="16" height="16" fill="white"/>
</clipPath>
</defs>
</svg>
