<svg width="44" height="44" viewBox="0 0 44 44" fill="none" xmlns="http://www.w3.org/2000/svg">
<g filter="url(#filter0_d_6353_64507)">
<rect x="2" y="1" width="40" height="40" rx="20" fill="#F04438"/>
<rect x="2.5" y="1.5" width="39" height="39" rx="19.5" stroke="white"/>
<path d="M28.4799 20.0225C28.2171 19.6558 27.8972 19.338 27.6001 19.0203C26.8345 18.2869 25.9661 17.7613 25.2348 16.9913C23.5323 15.2068 23.1552 12.2612 24.2407 10C23.1552 10.2811 22.2068 10.9167 21.3955 11.6134C18.4361 14.1557 17.2706 18.6414 18.6646 22.4915C18.7103 22.6137 18.756 22.7359 18.756 22.8948C18.756 23.1637 18.5846 23.4082 18.3561 23.5059C18.0933 23.6282 17.819 23.5548 17.6019 23.3593C17.5367 23.3016 17.4824 23.231 17.4419 23.1515C16.1508 21.4037 15.9451 18.898 16.8135 16.8935C14.9053 18.5558 13.8655 21.367 14.014 24.0193C14.0826 24.6304 14.1511 25.2415 14.3454 25.8527C14.5053 26.586 14.8139 27.3194 15.1567 27.9672C16.3907 30.0817 18.5275 31.5973 20.8242 31.9028C23.2695 32.2329 25.8861 31.7562 27.7601 29.9472C29.8511 27.9183 30.5824 24.6671 29.5083 21.8803L29.3598 21.5626C29.1198 21.0003 28.4799 20.0225 28.4799 20.0225ZM24.8692 27.7227C24.5492 28.0161 24.0236 28.3339 23.6122 28.4561C22.3325 28.945 21.0527 28.2605 20.2986 27.4538C21.6583 27.1116 22.4696 26.036 22.7096 24.9482C22.9038 23.9704 22.5382 23.1637 22.3896 22.2226C22.2525 21.3181 22.2753 20.5481 22.5839 19.7047C22.801 20.1692 23.0295 20.6336 23.3037 21.0003C24.1836 22.2226 25.5662 22.7604 25.8633 24.4226C25.909 24.5937 25.9318 24.7649 25.9318 24.9482C25.9661 25.9505 25.5547 27.0505 24.8692 27.7227Z" fill="white"/>
</g>
<defs>
<filter id="filter0_d_6353_64507" x="0" y="0" width="44" height="44" filterUnits="userSpaceOnUse" color-interpolation-filters="sRGB">
<feFlood flood-opacity="0" result="BackgroundImageFix"/>
<feColorMatrix in="SourceAlpha" type="matrix" values="0 0 0 0 0 0 0 0 0 0 0 0 0 0 0 0 0 0 127 0" result="hardAlpha"/>
<feOffset dy="1"/>
<feGaussianBlur stdDeviation="1"/>
<feColorMatrix type="matrix" values="0 0 0 0 0.180392 0 0 0 0 0.211765 0 0 0 0 0.219608 0 0 0 0.05 0"/>
<feBlend mode="normal" in2="BackgroundImageFix" result="effect1_dropShadow_6353_64507"/>
<feBlend mode="normal" in="SourceGraphic" in2="effect1_dropShadow_6353_64507" result="shape"/>
</filter>
</defs>
</svg>
