<svg width="44" height="44" viewBox="0 0 44 44" fill="none" xmlns="http://www.w3.org/2000/svg">
<g filter="url(#filter0_d_6353_64550)">
<rect x="2" y="1" width="40" height="40" rx="20" fill="white"/>
<rect x="2.5" y="1.5" width="39" height="39" rx="19.5" stroke="#E3E7E8"/>
<path d="M15.8866 23.4681C15.7 23.4681 15.5481 23.4529 15.4309 23.4225C15.3181 23.3921 15.2226 23.3379 15.1444 23.2598C15.0663 23.186 15.0121 23.0927 14.9817 22.9798C14.9556 22.8626 14.9426 22.7129 14.9426 22.5306V19.8874C14.9426 19.7007 14.9556 19.5488 14.9817 19.4316C15.0121 19.3145 15.0663 19.2168 15.1444 19.1387C15.2226 19.0692 15.3202 19.0193 15.4374 18.9889C15.5546 18.9542 15.7065 18.9368 15.8931 18.9368H15.9133C16.0913 18.9368 16.2389 18.9542 16.356 18.9889C16.4732 19.0193 16.5709 19.0692 16.649 19.1387C16.7228 19.2168 16.7749 19.3145 16.8053 19.4316C16.84 19.5488 16.8574 19.6986 16.8574 19.8809V22.5306C16.8574 22.8778 16.7857 23.1209 16.6425 23.2598C16.5687 23.3379 16.4732 23.3921 16.356 23.4225C16.2432 23.4529 16.0956 23.4681 15.9133 23.4681H15.8866ZM16.2577 25.5775C15.6848 25.5775 15.177 25.5276 14.7343 25.4277C14.2916 25.3279 13.9118 25.1196 13.595 24.8027C13.2738 24.4902 13.0655 24.1148 12.97 23.6764C12.8788 23.2381 12.8333 22.7303 12.8333 22.153V20.2454C12.8333 19.6725 12.881 19.1691 12.9765 18.735C13.072 18.301 13.2781 17.9234 13.595 17.6022C13.9118 17.2854 14.2894 17.0792 14.7278 16.9837C15.1705 16.8839 15.6761 16.834 16.2447 16.834H25.9062C26.4834 16.834 26.9912 16.8839 27.4296 16.9837C27.868 17.0792 28.2477 17.2854 28.5689 17.6022C28.8858 17.9191 29.0898 18.2967 29.1809 18.735C29.2764 19.1691 29.3241 19.6769 29.3241 20.2585V22.153C29.3241 22.7303 29.2764 23.2381 29.1809 23.6764C29.0898 24.1105 28.8858 24.4859 28.5689 24.8027C28.2477 25.1196 27.868 25.3279 27.4296 25.4277C26.9912 25.5276 26.4834 25.5775 25.9062 25.5775H16.2577ZM16.0885 24.2689H26.0754C26.3966 24.2689 26.6918 24.2407 26.9609 24.1842C27.2343 24.1278 27.4535 24.0171 27.6184 23.8522C27.779 23.6873 27.8875 23.4724 27.9439 23.2077C28.0004 22.9386 28.0286 22.6434 28.0286 22.3223V20.0892C28.0286 19.768 28.0004 19.4729 27.9439 19.2038C27.8918 18.9347 27.7833 18.7177 27.6184 18.5527C27.4535 18.3921 27.2343 18.2836 26.9609 18.2272C26.6918 18.1708 26.3966 18.1426 26.0754 18.1426H16.095C15.7738 18.1426 15.4765 18.1708 15.203 18.2272C14.9296 18.2793 14.7104 18.3878 14.5455 18.5527C14.3849 18.722 14.2764 18.9412 14.22 19.2103C14.1679 19.4794 14.1418 19.7745 14.1418 20.0957V22.3223C14.1418 22.6434 14.1679 22.9386 14.22 23.2077C14.2721 23.4724 14.3806 23.6873 14.5455 23.8522C14.7148 24.0171 14.9339 24.1278 15.203 24.1842C15.4721 24.2407 15.7673 24.2689 16.0885 24.2689ZM30.2486 22.9082V19.5033C30.4266 19.5119 30.6089 19.5879 30.7955 19.7311C30.9821 19.8743 31.1405 20.0718 31.2708 20.3236C31.4053 20.5753 31.4726 20.8683 31.4726 21.2025C31.4726 21.5367 31.4053 21.8296 31.2708 22.0814C31.1405 22.3331 30.9821 22.5328 30.7955 22.6803C30.6089 22.8236 30.4266 22.8995 30.2486 22.9082Z" fill="#73888C"/>
</g>
<defs>
<filter id="filter0_d_6353_64550" x="0" y="0" width="44" height="44" filterUnits="userSpaceOnUse" color-interpolation-filters="sRGB">
<feFlood flood-opacity="0" result="BackgroundImageFix"/>
<feColorMatrix in="SourceAlpha" type="matrix" values="0 0 0 0 0 0 0 0 0 0 0 0 0 0 0 0 0 0 127 0" result="hardAlpha"/>
<feOffset dy="1"/>
<feGaussianBlur stdDeviation="1"/>
<feColorMatrix type="matrix" values="0 0 0 0 0.180392 0 0 0 0 0.211765 0 0 0 0 0.219608 0 0 0 0.05 0"/>
<feBlend mode="normal" in2="BackgroundImageFix" result="effect1_dropShadow_6353_64550"/>
<feBlend mode="normal" in="SourceGraphic" in2="effect1_dropShadow_6353_64550" result="shape"/>
</filter>
</defs>
</svg>
