<svg width="28" height="14" viewBox="0 0 28 14" fill="none" xmlns="http://www.w3.org/2000/svg">
<path d="M5.00024 10.0933C4.76213 10.0933 4.56787 10.0745 4.41748 10.0369C4.26709 9.993 4.14176 9.92094 4.0415 9.82068C3.93498 9.72042 3.85978 9.59509 3.81592 9.4447C3.77832 9.29431 3.75952 9.10006 3.75952 8.86194L3.75952 5.15857C3.75952 4.91418 3.77832 4.7168 3.81592 4.56641C3.85978 4.40975 3.93498 4.28129 4.0415 4.18103C4.14176 4.08077 4.26709 4.01184 4.41748 3.97424C4.57414 3.93038 4.77153 3.90845 5.00964 3.90845L15.4524 3.90845C15.6905 3.90845 15.8848 3.93038 16.0352 3.97424C16.1855 4.01184 16.3109 4.08077 16.4111 4.18103C16.5177 4.28129 16.5897 4.40975 16.6273 4.56641C16.6649 4.7168 16.6837 4.91105 16.6837 5.14917L16.6837 8.86194C16.6837 9.31938 16.5929 9.63896 16.4111 9.82068C16.3109 9.92094 16.1855 9.993 16.0352 10.0369C15.8848 10.0745 15.6905 10.0933 15.4524 10.0933L5.00024 10.0933ZM5.43262 13.4958C4.55534 13.4958 3.79399 13.4207 3.14856 13.2703C2.5094 13.1136 1.95797 12.8066 1.49426 12.3491C1.03056 11.8917 0.723511 11.3434 0.573121 10.7042C0.428996 10.0651 0.356934 9.30684 0.356934 8.42957L0.356934 5.56274C0.356934 4.69173 0.432129 3.93978 0.58252 3.30688C0.73291 2.66772 1.03682 2.11629 1.49426 1.65259C1.95797 1.19515 2.5094 0.891235 3.14856 0.740845C3.78772 0.584188 4.54281 0.505859 5.41382 0.505859L19.3344 0.505858C20.2054 0.505858 20.9604 0.584187 21.5996 0.740844C22.245 0.891234 22.7996 1.19515 23.2633 1.65259C23.727 2.11002 24.0309 2.65832 24.175 3.29748C24.3192 3.93664 24.3912 4.69486 24.3912 5.57214L24.3912 8.42956C24.3912 9.30684 24.3192 10.0651 24.175 10.7042C24.0309 11.3371 23.727 11.8854 23.2633 12.3491C22.7996 12.8066 22.245 13.1136 21.5996 13.2703C20.9604 13.4207 20.2054 13.4958 19.3344 13.4958L5.43262 13.4958ZM5.17883 11.3246L19.5787 11.3246C20.0424 11.3246 20.4529 11.287 20.8101 11.2118C21.1672 11.1303 21.4555 10.9799 21.6748 10.7606C21.8879 10.5413 22.032 10.2562 22.1072 9.90527C22.1886 9.55436 22.2294 9.14392 22.2294 8.67395L22.2294 5.32776C22.2294 4.86405 22.1918 4.45675 22.1166 4.10583C22.0414 3.74866 21.8941 3.46041 21.6748 3.24109C21.4555 3.02803 21.1672 2.88078 20.8101 2.79932C20.4529 2.71785 20.0424 2.67712 19.5787 2.67712L5.18823 2.67712C4.71826 2.67712 4.30469 2.71785 3.94751 2.79932C3.59033 2.87451 3.30208 3.02177 3.08276 3.24109C2.86344 3.46041 2.71619 3.74866 2.64099 4.10583C2.5658 4.45675 2.5282 4.86719 2.5282 5.33716L2.5282 8.67395C2.5282 9.14392 2.5658 9.55749 2.64099 9.91467C2.71619 10.2656 2.86344 10.5476 3.08276 10.7606C3.30208 10.9799 3.59033 11.1303 3.94751 11.2118C4.30469 11.287 4.71513 11.3246 5.17883 11.3246ZM25.8011 9.56689L25.8011 4.43481C26.0706 4.45361 26.3463 4.57267 26.6283 4.79199C26.9103 5.00504 27.1484 5.29956 27.3427 5.67554C27.5432 6.05151 27.6434 6.49328 27.6434 7.00085C27.6434 7.50216 27.5432 7.94393 27.3427 8.32617C27.1484 8.70215 26.9103 8.9998 26.6283 9.21911C26.3463 9.43843 26.0706 9.55436 25.8011 9.56689Z" fill="white"/>
</svg>
